<svg id="visual" viewBox="0 0 900 600" width="900" height="600" xmlns="http://www.w3.org/2000/svg" xmlns:xlink="http://www.w3.org/1999/xlink" version="1.1"><rect x="0" y="0" width="900" height="600" fill="#ffffff"></rect><path d="M614 600L609.8 590C605.7 580 597.3 560 611.8 540C626.3 520 663.7 500 661.5 480C659.3 460 617.7 440 632.7 420C647.7 400 719.3 380 722.3 360C725.3 340 659.7 320 608.7 300C557.7 280 521.3 260 515.5 240C509.7 220 534.3 200 568 180C601.7 160 644.3 140 637.7 120C631 100 575 80 582.5 60C590 40 661 20 696.5 10L732 0L900 0L900 10C900 20 900 40 900 60C900 80 900 100 900 120C900 140 900 160 900 180C900 200 900 220 900 240C900 260 900 280 900 300C900 320 900 340 900 360C900 380 900 400 900 420C900 440 900 460 900 480C900 500 900 520 900 540C900 560 900 580 900 590L900 600Z" fill="#ac285a" stroke-linecap="round" stroke-linejoin="miter"></path></svg>